<svg width="32" height="32" viewBox="0 0 32 32" fill="none" xmlns="http://www.w3.org/2000/svg">
<path d="M9.2642 23V8.45455H18.8949V10.9901H12.3395V14.456H18.2557V16.9915H12.3395V23H9.2642ZM23.7564 16.6932V23H20.7308V12.0909H23.6143V14.0156H23.7422C23.9837 13.3812 24.3885 12.8793 24.9567 12.5099C25.5249 12.1359 26.2138 11.9489 27.0234 11.9489C27.781 11.9489 28.4415 12.1146 29.005 12.446C29.5684 12.7775 30.0064 13.2509 30.3189 13.8665C30.6314 14.4773 30.7876 15.2064 30.7876 16.054V23H27.7621V16.5938C27.7668 15.9261 27.5964 15.4053 27.2507 15.0312C26.9051 14.6525 26.4292 14.4631 25.8232 14.4631C25.416 14.4631 25.0561 14.5507 24.7436 14.7259C24.4358 14.901 24.1944 15.1567 24.0192 15.4929C23.8487 15.8243 23.7611 16.2244 23.7564 16.6932Z" fill="#ECEAFF"/>
</svg>
