<svg viewBox="0 0 128 128" fill="none" xmlns="http://www.w3.org/2000/svg" user-select="none" class="pointer-events-none aspect-square h-[1em] text-[2.5rem] text-current w-[1em]"><path fill-rule="evenodd" clip-rule="evenodd" d="M0 0H128V128H0V0ZM6.44704 6.44704V121.553H121.553V6.44704H6.44704Z" fill="currentColor"></path><path d="M25.6965 36.6253H58.9926V46.3811H37.0218V58.8307H58.4643V68.5866H37.0218V91.3747H25.6965V36.6253Z" fill="currentColor"></path><path d="M91.4314 68.5866C91.4314 67.2275 91.2301 66.087 90.8272 65.1648C90.4749 64.2426 89.9715 63.5146 89.3171 62.9808C88.663 62.3984 87.9331 61.9856 87.1277 61.743C86.3222 61.5005 85.4918 61.3789 84.6362 61.3789C82.4214 61.3789 80.6848 62.2042 79.4266 63.8544C78.1683 65.456 77.5389 67.543 77.5389 70.1155V91.3747H66.6669V53.953H77.0861V58.8307H77.2371C78.8477 56.5494 80.6093 54.9965 82.5222 54.1712C84.4349 53.3462 86.4986 52.9334 88.7133 52.9334C91.0288 52.9334 93.0419 53.2733 94.7533 53.953C96.4646 54.6323 97.8742 55.5789 98.9814 56.7923C100.139 57.9571 100.97 59.3405 101.473 60.9421C102.027 62.4954 102.304 64.1699 102.304 65.9658V91.3747H91.4314V68.5866Z" fill="currentColor"></path></svg>